PathFileType	4	(X/Y/Z)	./resultDataOpenSim/trcMotMarkerGrf/sub06/qtm-12-08.trc
DataRate	CameraRate	NumFrames	NumMarkers	Units	OrigDataRate	OrigDataStartFrame	OrigNumFrames
250.000000	250.000000	9	24	m	250.000000	65	519
Frame#	Time	L.Toe.Tip			R.Toe.Tip			L.Ankle.Lat			R.Ankle.Lat			L.Ankle.Med			R.Ankle.Med			L.Heel			R.Heel			L.Knee.Lat			R.Knee.Lat			L.Knee.Med			R.Knee.Med			L.Thigh.Upper			R.Thigh.Upper			L.ASIS			R.ASIS			V.Sacral			L.Acromium			R.Acromium			C7			L.Elbow			R.Elbow			L.Wrist.Lat			R.Wrist.Lat
		X1	Y1	Z1	X2	Y2	Z2	X3	Y3	Z3	X4	Y4	Z4	X5	Y5	Z5	X6	Y6	Z6	X7	Y7	Z7	X8	Y8	Z8	X9	Y9	Z9	X10	Y10	Z10	X11	Y11	Z11	X12	Y12	Z12	X13	Y13	Z13	X14	Y14	Z14	X15	Y15	Z15	X16	Y16	Z16	X17	Y17	Z17	X18	Y18	Z18	X19	Y19	Z19	X20	Y20	Z20	X21	Y21	Z21	X22	Y22	Z22	X23	Y23	Z23	X24	Y24	Z24

65	0.256	-1.3702872	0.071677458	-0.10335998	-0.71454937	0.036056516	0.07086722	-1.3497846	0.20224259	-0.13030591	-0.84980275	0.061347574	0.092091834	-1.3318127	0.19945954	-0.047727053	-0.83171761	0.079292593	0.0049409922	-1.3860719	0.26182495	-0.07726542	-0.90562875	0.037665417	0.031179405	-1.0086584	0.37324065	-0.15626219	-0.7975189	0.44516315	0.11618346	-1.00147	0.3592462	-0.037616227	-0.83636483	0.43000247	-0.0069989155	-0.98983637	0.76450517	-0.16320237	-0.946603	0.79021561	0.17920368	-0.90778715	0.81454439	-0.12735949	-0.87294063	0.83757156	0.11135908	-1.0752507	0.90718724	0.016276009	-0.93542825	1.3141705	-0.16500888	-0.94956455	1.2818936	0.19723776	-1.017751	1.3421912	0.01550062	-0.95350898	0.99178071	-0.23571794	-1.0697081	0.98642422	0.23628282	-0.76259282	0.83624981	-0.20303691	-0.97483054	0.76775451	0.279996
66	0.26	-1.3559048	0.073444117	-0.10276693	-0.7146577	0.036057925	0.070955598	-1.3373794	0.20423784	-0.12961626	-0.84993949	0.061307405	0.092157029	-1.3196684	0.20185021	-0.046864334	-0.83167874	0.079377736	0.0050728205	-1.3744547	0.26354353	-0.076623892	-0.90606181	0.037695649	0.031638722	-0.99623612	0.37410472	-0.1565331	-0.79489959	0.44471996	0.11686306	-0.98899255	0.36050679	-0.037518766	-0.83391074	0.430008	-0.006290585	-0.98323628	0.76592684	-0.16259233	-0.93990272	0.79159029	0.17999418	-0.90123742	0.81617113	-0.12655094	-0.8668818	0.83867565	0.11212157	-1.068789	0.90867729	0.01690808	-0.9297688	1.3156071	-0.16484696	-0.94313225	1.2835032	0.1974764	-1.0115626	1.3437551	0.015899657	-0.94898844	0.99321193	-0.23550675	-1.0614142	0.98757095	0.23763312	-0.75913076	0.83626588	-0.20311518	-0.96558422	0.76942351	0.28095288
67	0.264	-1.3409519	0.074999714	-0.10202772	-0.71479593	0.036068155	0.07106162	-1.3247915	0.20603676	-0.1288195	-0.85013284	0.061264166	0.092250904	-1.3060554	0.20442482	-0.046448996	-0.83167404	0.079473129	0.0052215624	-1.3628247	0.26500364	-0.076037077	-0.90640408	0.037704774	0.031969478	-0.9837336	0.3751068	-0.15673351	-0.79265444	0.4441704	0.11745504	-0.97647728	0.36189409	-0.037326804	-0.8316072	0.43006861	-0.0055892926	-0.9766744	0.76740558	-0.16200912	-0.93431708	0.79284165	0.1804434	-0.89472225	0.81782524	-0.12576838	-0.86089705	0.83982324	0.11288852	-1.0622547	0.9101857	0.017501441	-0.92418203	1.3171121	-0.16468105	-0.93675315	1.2851902	0.19770723	-1.0054199	1.3453272	0.016262017	-0.94442344	0.99469812	-0.23513604	-1.0529968	0.98877335	0.23914072	-0.75573225	0.83636403	-0.2031987	-0.95630947	0.77120428	0.2818953
68	0.268	-1.3256009	0.076362195	-0.10120496	-0.71496187	0.036085407	0.071191427	-1.3119341	0.20762982	-0.12794902	-0.8504097	0.061215732	0.092371862	-1.2915466	0.20697357	-0.046271006	-0.83171096	0.079575149	0.0053843222	-1.3511141	0.26615759	-0.075460199	-0.90661502	0.037703044	0.032136476	-0.97122939	0.37625707	-0.15687391	-0.79069228	0.4436013	0.11799888	-0.96387648	0.36341926	-0.037061507	-0.82946263	0.43017784	-0.004894786	-0.97015509	0.7689432	-0.16147041	-0.92985959	0.79391332	0.18055166	-0.88831581	0.81948384	-0.12514093	-0.85499375	0.84101278	0.11367122	-1.0557089	0.91172431	0.017980128	-0.91865234	1.318677	-0.16451801	-0.93042137	1.2869499	0.19792929	-0.99933046	1.3468999	0.016591383	-0.93988727	0.99622532	-0.23475102	-1.0446865	0.99000481	0.2405866	-0.7523697	0.83654972	-0.20327441	-0.94700496	0.773099	0.28283597
69	0.272	-1.3099725	0.077527516	-0.1003473	-0.71514753	0.036108452	0.071345211	-1.2988221	0.20899925	-0.1270423	-0.85074823	0.061173321	0.092513739	-1.2771924	0.20919162	-0.045951087	-0.83178774	0.079684142	0.0055542398	-1.3392159	0.26694933	-0.074822475	-0.90673479	0.037705875	0.032199207	-0.95876516	0.37756244	-0.15695213	-0.78887372	0.44314457	0.11854453	-0.95123984	0.36510792	-0.036799848	-0.82741848	0.43031638	-0.0042541215	-0.96368312	0.77053355	-0.1610183	-0.92565209	0.79491833	0.1806321	-0.88203831	0.82114454	-0.12471421	-0.84917583	0.84223616	0.11447238	-1.0491914	0.91329656	0.018310232	-0.91315941	1.320293	-0.16436208	-0.92413481	1.28878	0.19814233	-0.99329428	1.3484771	0.016892124	-0.93541405	0.99780934	-0.23437715	-1.0366391	0.9912804	0.24177744	-0.74904944	0.83681666	-0.20334952	-0.93767351	0.7751054	0.28377482
70	0.276	-1.2941103	0.078481026	-0.099475252	-0.71534007	0.036136924	0.071516889	-1.2855655	0.21009943	-0.12611439	-0.85110607	0.06115057	0.092665876	-1.2633914	0.21094665	-0.045349434	-0.83188799	0.079800838	0.0057233096	-1.3270853	0.2673896	-0.074091079	-0.90680969	0.037721981	0.032220315	-0.94634152	0.37902249	-0.15696028	-0.78712798	0.44284749	0.11910884	-0.93871319	0.36699107	-0.036581045	-0.82541612	0.43047591	-0.0037004304	-0.957256	0.77217492	-0.16071832	-0.92084184	0.79601916	0.18099334	-0.87584776	0.82282177	-0.12444189	-0.84343979	0.84348535	0.11528813	-1.0427657	0.91489594	0.018547771	-0.90768875	1.3219533	-0.16420949	-0.91788736	1.2906751	0.19834443	-0.98730435	1.3500717	0.017168369	-0.93098066	0.99948246	-0.23395129	-1.0288221	0.99262465	0.24271249	-0.74579682	0.83715385	-0.20344152	-0.9283181	0.77721181	0.28470187
71	0.28	-1.2780269	0.079220584	-0.098608489	-0.71552356	0.036170336	0.071698123	-1.2722439	0.21088504	-0.12516298	-0.85144196	0.061153682	0.092817029	-1.2498841	0.21228265	-0.044573371	-0.83198871	0.079920976	0.0058877495	-1.3147679	0.26754189	-0.073275574	-0.90685856	0.037753265	0.032228003	-0.93395528	0.38063278	-0.1569025	-0.78544413	0.44266175	0.11967288	-0.92644854	0.36906443	-0.036317541	-0.82343542	0.43066484	-0.0032331169	-0.95085733	0.7738757	-0.16059642	-0.91559341	0.79720534	0.18159803	-0.86968989	0.82453258	-0.12424289	-0.83775332	0.84475573	0.11611717	-1.0365653	0.9165079	0.018870115	-0.9022354	1.3236513	-0.16405199	-0.91166195	1.2926248	0.19853119	-0.98135149	1.3516932	0.017423059	-0.92657402	1.0012565	-0.23345843	-1.0211125	0.9940408	0.24352325	-0.74262603	0.83755984	-0.20356439	-0.91893613	0.77940218	0.28560679
72	0.284	-1.2617433	0.079764205	-0.097767712	-0.71568503	0.036205644	0.071880038	-1.2588164	0.21136228	-0.12420049	-0.85172495	0.06117807	0.09295836	-1.2363564	0.21328428	-0.043748206	-0.83207465	0.080036981	0.0060499987	-1.3023259	0.26744601	-0.072407512	-0.90688217	0.037798574	0.032225519	-0.92160949	0.38238705	-0.15678959	-0.78381458	0.44252192	0.12021972	-0.91447397	0.37124543	-0.0358748	-0.82147896	0.43089587	-0.0028316389	-0.94445696	0.77564908	-0.16057621	-0.91071281	0.79830327	0.18215685	-0.8635432	0.82628729	-0.12404754	-0.83202166	0.84605037	0.11697305	-1.0307691	0.91810373	0.019518305	-0.89679866	1.3253798	-0.16388511	-0.90542407	1.2946121	0.19870157	-0.97542452	1.3533352	0.017657815	-0.92220597	1.003118	-0.23293617	-1.013422	0.99551574	0.24432421	-0.73953076	0.83803772	-0.20372719	-0.90952345	0.78166467	0.28648523
73	0.288	-1.2452947	0.080133169	-0.096959336	-0.71582031	0.036237405	0.072054619	-1.2451934	0.21158051	-0.12325761	-0.85193899	0.061212058	0.09308602	-1.2226666	0.2140156	-0.042923634	-0.83214299	0.080145226	0.0062137716	-1.289753	0.2670925	-0.071596471	-0.90688061	0.037855536	0.032209482	-0.9093051	0.3842762	-0.15663043	-0.78222	0.44239369	0.12074731	-0.90259928	0.37342754	-0.035255098	-0.81955204	0.43117395	-0.0024590557	-0.93801182	0.77750344	-0.16048356	-0.90643669	0.79920743	0.18250187	-0.85742578	0.82808209	-0.12382343	-0.82608692	0.84738098	0.11788873	-1.0254077	0.91965216	0.02056057	-0.89137563	1.3271332	-0.16371277	-0.89912039	1.2966151	0.19885803	-0.9695081	1.3549795	0.017877105	-0.91788567	1.0050489	-0.23241043	-1.0057172	0.99703419	0.24515675	-0.73649282	0.83857999	-0.20393387	-0.90007944	0.78399225	0.28733639
